<?xml version="1.0" standalone="no"?>
<!DOCTYPE svg PUBLIC "-//W3C//DTD SVG 20010904//EN"
 "http://www.w3.org/TR/2001/REC-SVG-20010904/DTD/svg10.dtd">
<svg version="1.0" xmlns="http://www.w3.org/2000/svg"
 width="233.000000pt" height="80.000000pt" viewBox="0 0 233.000000 80.000000"
 preserveAspectRatio="xMidYMid meet">

<g transform="translate(0.000000,80.000000) scale(0.100000,-0.100000)"
fill="#000000" stroke="none">
<path d="M533 655 c-33 -14 -63 -59 -63 -94 0 -35 -12 -51 -36 -51 -21 0 -24
-5 -24 -35 0 -31 3 -35 25 -35 14 0 25 -6 26 -12 0 -7 0 -59 -1 -116 l-1 -102
45 0 46 0 0 115 0 115 33 0 c31 0 33 3 35 35 3 34 1 35 -33 35 -27 0 -35 4
-35 18 0 29 29 62 56 62 21 0 24 4 24 40 0 39 -1 40 -32 40 -18 -1 -47 -7 -65
-15z"/>
<path d="M211 509 c-138 -29 -165 -227 -39 -288 75 -36 149 -22 198 37 26 32
30 44 30 97 0 112 -80 177 -189 154z m84 -104 c29 -28 30 -34 11 -80 -15 -34
-30 -41 -76 -35 -23 3 -50 42 -50 73 0 34 32 67 65 67 14 0 37 -11 50 -25z"/>
<path d="M724 510 c-53 -11 -94 -47 -94 -81 0 -50 15 -65 89 -89 64 -20 89
-40 76 -60 -11 -17 -46 -17 -69 1 -26 21 -106 27 -106 8 0 -41 73 -89 135 -89
72 0 135 45 135 96 0 39 -45 81 -101 94 -50 12 -73 35 -49 50 15 9 50 1 50
-11 0 -5 21 -9 46 -9 42 0 45 1 39 23 -16 52 -82 81 -151 67z"/>
<path d="M1067 509 c-16 -4 -35 -13 -43 -20 -11 -9 -14 -8 -14 5 0 12 -10 16
-45 16 l-45 0 0 -225 0 -225 45 0 45 0 0 85 0 86 30 -16 c62 -32 140 -8 180
57 24 40 26 117 4 163 -26 56 -98 90 -157 74z m69 -104 c20 -31 13 -91 -13
-111 -23 -17 -64 -18 -87 -1 -9 7 -20 31 -23 54 -4 33 -1 45 16 62 31 31 86
29 107 -4z"/>
<path d="M1762 507 c-147 -29 -161 -243 -19 -296 54 -21 139 -8 180 27 25 22
22 30 -18 49 -19 9 -35 20 -35 25 0 4 -9 -1 -20 -12 -34 -34 -82 -25 -105 21
-21 40 -19 62 9 88 20 19 31 22 63 17 63 -11 81 -9 107 12 24 18 24 20 8 34
-37 32 -110 47 -170 35z"/>
<path d="M2079 510 c-76 -13 -119 -67 -119 -151 0 -67 27 -115 80 -141 60 -31
163 -18 198 24 11 14 8 19 -16 37 -28 20 -31 20 -62 5 -23 -12 -40 -14 -62 -8
-29 9 -58 37 -47 48 2 3 52 6 109 8 l105 3 -2 43 c-4 91 -85 149 -184 132z
m84 -92 l22 -23 -64 -3 c-35 -2 -66 0 -70 3 -10 11 39 45 65 45 13 0 34 -10
47 -22z"/>
<path d="M1300 240 l0 -40 150 0 150 0 0 40 0 40 -150 0 -150 0 0 -40z"/>
</g>
</svg>
